<svg id="Calque_1" data-name="Calque 1" xmlns="http://www.w3.org/2000/svg" xmlns:xlink="http://www.w3.org/1999/xlink" viewBox="0 0 878 500"><defs><style>.cls-1{fill:url(#Dégradé_sans_nom_6);}.cls-2{fill:#fff;opacity:0.25;}</style><radialGradient id="Dégradé_sans_nom_6" cx="436.26" cy="25.63" fx="426.98567280306645" fy="-325.27194886192154" r="619.98" gradientUnits="userSpaceOnUse"><stop offset="0" stop-color="#cee7f6"/><stop offset="1" stop-color="#216ca8"/></radialGradient></defs><title>bg-cloudy</title><rect class="cls-1" x="0.23" y="0.36" width="877.77" height="499.64" rx="10" ry="10"/><path class="cls-2" d="M762.76,177.64a112,112,0,0,0-159.3,113,209.6,209.6,0,0,0-113.9,109.84,210,210,0,0,0-138.73-20.87c.06-1.27.08-2.55.08-3.83a112,112,0,0,0-152-104.55A208.87,208.87,0,0,0,18,166.88q-9.09,0-18,.77v322a10,10,0,0,0,10,10H867.76a10,10,0,0,0,10-10V107A208.91,208.91,0,0,0,762.76,177.64Z"/><path class="cls-2" d="M859.77,37A208.86,208.86,0,0,0,678.85,141.28a112,112,0,0,0-152,104.54c0,1.29,0,2.57.08,3.84a209.83,209.83,0,0,0-138.73,20.86,209.67,209.67,0,0,0-113.9-109.84A112,112,0,0,0,115,47.74,209.8,209.8,0,0,0,58.53,0H10A10,10,0,0,0,0,10V489.63a10,10,0,0,0,10,10H867.76a10,10,0,0,0,10-10V37.74Q868.88,37,859.77,37Z"/></svg>