<svg id="Calque_1" data-name="Calque 1" xmlns="http://www.w3.org/2000/svg" viewBox="0 0 27 40"><defs><style>.cls-1{fill:#fff;}</style></defs><title>Plan de travail 1</title><path class="cls-1" d="M26.94,13.74l0-.05h0a253590322150.65,253590322150.65,0,0,0,0-.06h0a.11.11,0,0,0,0,0h0A13.54,13.54,0,0,0,13.5,0h0A13.54,13.54,0,0,0,0,13.55H0a.11.11,0,0,0,0,0H0a0,0,0,0,0,0,0,0,0,0,0,0,0,0H0l0,.05h0L12.87,32.33H8.76a.32.32,0,0,0-.32.33v2.76a.32.32,0,0,0,.32.33h.39v3.92a.33.33,0,0,0,.33.33h8a.33.33,0,0,0,.33-.33V35.75h.39a.32.32,0,0,0,.32-.33V32.66a.32.32,0,0,0-.32-.33H14.13L26.94,13.74ZM5.07,13.28a1.87,1.87,0,0,1,3.69,0v.25h0v0a0,0,0,0,0,0,0h0l3.68,15.95L5.07,13.48Zm4.37.32v0a1.87,1.87,0,1,1,3.73,0V29.77Zm4.39,0a1.87,1.87,0,1,1,3.73,0v0L13.83,29.77Zm-9.33.24,7.12,15.54-11-15.9a1.87,1.87,0,0,1,3.73.12A.32.32,0,0,0,4.5,13.82Zm13.73-.19h0a.08.08,0,0,0,0,0v0h0V13.3a1.87,1.87,0,0,1,3.69,0v.2l-7.38,16.1Zm4.27.19a.32.32,0,0,0,.11-.24,1.87,1.87,0,0,1,3.73-.12l-11,15.9Z"/></svg>