<?xml version="1.0" encoding="utf-8"?>
<!-- Generator: Adobe Illustrator 22.0.1, SVG Export Plug-In . SVG Version: 6.00 Build 0)  -->
<!DOCTYPE svg PUBLIC "-//W3C//DTD SVG 1.1//EN" "http://www.w3.org/Graphics/SVG/1.1/DTD/svg11.dtd">
<svg version="1.1" id="Calque_1" xmlns="http://www.w3.org/2000/svg" xmlns:xlink="http://www.w3.org/1999/xlink" x="0px" y="0px"
	 viewBox="0 0 27 40" style="enable-background:new 0 0 27 40;" xml:space="preserve">
<style type="text/css">
	.st0{fill:#FFFFFF;}
</style>
<title>Plan de travail 1</title>
<path class="st0" d="M18.3,32.3h-4.5L27,13.5C27,6.1,20.9,0,13.5,0c0,0,0,0,0,0h0l0,0h0l0,0h0c0,0,0,0,0,0C6.1,0,0,6.1,0,13.5
	l13.2,18.7H8.7c-0.2,0-0.3,0.1-0.3,0.3v2.8c0,0.2,0.1,0.3,0.3,0.3h0.4v3.9c0,0.2,0.1,0.3,0.3,0.3h8.1c0.2,0,0.3-0.1,0.3-0.3v-3.9
	h0.4c0.2,0,0.3-0.1,0.3-0.3v-2.8C18.6,32.4,18.4,32.3,18.3,32.3z M24.3,11.7c1,0,1.8,0.8,1.9,1.8L14.4,30.7l8-17.1
	C22.5,12.5,23.3,11.7,24.3,11.7z M20,11.7c1,0,1.8,0.8,1.9,1.8l-7.7,16.7l4-16.7C18.2,12.5,19,11.7,20,11.7z M13.8,13.5
	c0-1,0.8-1.8,1.9-1.8c1,0,1.8,0.8,1.9,1.8L13.8,30L13.8,13.5z M11.3,11.7c1,0,1.8,0.8,1.9,1.8l0,16.5L9.5,13.5
	C9.5,12.5,10.3,11.7,11.3,11.7z M0.8,13.5c0-1,0.8-1.8,1.9-1.8c1,0,1.8,0.8,1.9,1.8l8,17.1L0.8,13.5z M5.1,13.5c0-1,0.8-1.8,1.9-1.8
	c1,0,1.8,0.8,1.9,1.8l4,16.7L5.1,13.5z"/>
</svg>
