<svg id="Calque_1" data-name="Calque 1" xmlns="http://www.w3.org/2000/svg" viewBox="0 0 800 800"><defs><style>.cls-1{fill:#fff;}</style></defs><title>Plan de travail 1</title><path class="cls-1" d="M663.93,274.8a6.72,6.72,0,0,0,.52-.95c0-.07.08-.13.11-.2a7.36,7.36,0,0,0,.22-.71c.05-.17.13-.35.17-.53s0-.17,0-.25a6.24,6.24,0,0,0,.11-1.05v0C665.08,121.6,543.51,0,394.09,0h0c-149.43,0-271,121.6-271,271.07,0,0,0,0,0,0a6.22,6.22,0,0,0,.1,1.05c0,.09,0,.17,0,.25a4.84,4.84,0,0,0,.17.54,5.19,5.19,0,0,0,.22.7c0,.07.07.13.1.2a6.78,6.78,0,0,0,.53.95l0,0L381.47,646.61H299a6.61,6.61,0,0,0-6.61,6.61v55.15A6.61,6.61,0,0,0,299,715h7.81v78.4a6.61,6.61,0,0,0,6.61,6.61H474.72a6.61,6.61,0,0,0,6.61-6.61V715h7.81a6.61,6.61,0,0,0,6.61-6.62V653.22a6.6,6.6,0,0,0-6.61-6.61H406.69L663.91,274.84Zm-14.6-39.93a50.51,50.51,0,0,0-74.05,4.5c-4.65-60-22.47-115.57-51.34-159-15.54-23.38-33.47-42-53-55.43C564.52,54.25,635.32,135.56,649.33,234.87ZM224.92,265.53a37.45,37.45,0,0,1,74,.42c0,1.7,0,3.41,0,5.12,0,0,0,.05,0,.08a5.41,5.41,0,0,0,.07.68c0,.22,0,.45.08.66a.22.22,0,0,1,0,.08L373,591.64l-148.14-322C224.89,268.28,224.9,266.9,224.92,265.53Zm250.42-28.37a50.53,50.53,0,0,0-74.65.28V14.19C435.25,24.05,470,110,475.34,237.16Zm-87.87.28a50.53,50.53,0,0,0-74.64-.29c5.32-127.19,40.09-213.1,74.64-223Zm-75,34.55c0-.16.05-.31.05-.48a37.46,37.46,0,1,1,74.91,0V595.43Zm88.18-.48a37.46,37.46,0,1,1,74.92,0,3.71,3.71,0,0,0,.05.48l-75,323.44ZM463,81.93C453.71,54.2,442.56,33,430.19,19.15c68.53,22.79,121.66,109,131.47,216.14a50.53,50.53,0,0,0-73.08,2.42C486.14,178.94,477.27,124.54,463,81.93Zm-137.83,0c-14.27,42.61-23.14,97-25.58,155.79a50.52,50.52,0,0,0-73.08-2.43C236.31,128.18,289.45,41.94,358,19.15,345.61,33,334.46,54.2,325.17,81.93ZM213.45,276.43l143,310.72-220-318a37.46,37.46,0,0,1,74.84,2.39A6.55,6.55,0,0,0,213.45,276.43Zm275.64-3.86a.17.17,0,0,0,0-.07,5.67,5.67,0,0,0,.09-.72c0-.21.06-.42.07-.62v-.08c0-1.72,0-3.43,0-5.14a37.45,37.45,0,0,1,74-.4q0,2.06,0,4.11l-148.14,322ZM317.2,24.94c-19.51,13.42-37.43,32.05-53,55.43-28.88,43.43-46.69,99-51.35,159a50.5,50.5,0,0,0-74-4.5C152.85,135.56,223.64,54.25,317.2,24.94ZM468.11,786.78H320.05V715H468.11Zm14.42-85H305.63V659.83h176.9Zm92.18-425.33a6.56,6.56,0,0,0,2.24-4.92,37.46,37.46,0,0,1,74.84-2.39l-220,318Z"/></svg>