<svg id="Calque_1" data-name="Calque 1" xmlns="http://www.w3.org/2000/svg" viewBox="0 0 176 260"><defs><style>.cls-1{fill:#999a99;}.cls-2{fill:#cccccb;}.cls-3{fill:#cabb73;}.cls-4{opacity:0.3;}.cls-5{fill:#fff;}</style></defs><title>parachute</title><path class="cls-1" d="M29.16,77.8c1.51-19.5,7.3-37.57,16.67-51.68A65.7,65.7,0,0,1,63,8.11,84,84,0,0,0,5.12,76.33a16.39,16.39,0,0,1,24,1.47Z"/><path class="cls-2" d="M33.59,76.47a16.39,16.39,0,0,1,23.73.79c.79-19.1,3.67-36.78,8.3-50.63,3-9,6.64-15.9,10.66-20.41C54,13.63,36.77,41.66,33.59,76.47Z"/><path class="cls-2" d="M114.39,77.08c-1.73-41.34-13-69.27-24.24-72.47V77.17a16.39,16.39,0,0,1,24.24-.09Z"/><path class="cls-1" d="M73.69,71.77a16.4,16.4,0,0,1,12.16,5.4V4.61C74.63,7.82,63.34,35.74,61.61,77.08A16.41,16.41,0,0,1,73.69,71.77Z"/><path class="cls-1" d="M130.93,71.77a16.42,16.42,0,0,1,11.49,4.7C139.23,41.66,122,13.63,99.73,6.22c4,4.51,7.63,11.4,10.65,20.41,4.63,13.85,7.51,31.53,8.3,50.63A16.41,16.41,0,0,1,130.93,71.77Z"/><path class="cls-2" d="M113,8.11a65.7,65.7,0,0,1,17.21,18c9.37,14.11,15.16,32.18,16.67,51.68a16.39,16.39,0,0,1,24-1.47A84,84,0,0,0,113,8.11Z"/><polygon class="cls-3" points="88 214.45 87.99 214.45 59.28 214.45 59.28 228.07 61.81 228.07 114.19 228.07 116.72 228.07 116.72 214.45 88 214.45 88 214.45"/><rect class="cls-3" x="63.96" y="232.37" width="48.08" height="23.33"/><rect class="cls-4" x="63.96" y="232.37" width="48.08" height="5.99"/><path class="cls-5" d="M88,0h0A88.15,88.15,0,0,0,0,88.1H0a1.86,1.86,0,0,0,0,.34v.08l.06.18a1.55,1.55,0,0,0,.07.23L.2,89a1.92,1.92,0,0,0,.18.31h0L83.9,210.15H57.13A2.15,2.15,0,0,0,55,212.3v17.92a2.15,2.15,0,0,0,2.15,2.15h2.54v25.48A2.14,2.14,0,0,0,61.81,260h52.38a2.14,2.14,0,0,0,2.14-2.15V232.37h2.54a2.15,2.15,0,0,0,2.15-2.15V212.3a2.15,2.15,0,0,0-2.15-2.15H92.1L175.62,89.32h0a1.92,1.92,0,0,0,.18-.31l0-.06c0-.08,0-.16.07-.23l.06-.18v-.08a2,2,0,0,0,0-.34h0A88.15,88.15,0,0,0,88,0Zm2.15,4.61c11.22,3.2,22.51,31.13,24.24,72.47a16.39,16.39,0,0,0-24.24.09Zm9.58,1.61c22.25,7.41,39.5,35.44,42.69,70.25a16.4,16.4,0,0,0-23.74.79c-.79-19.1-3.67-36.78-8.3-50.63C107.36,17.62,103.74,10.73,99.73,6.22ZM85.85,4.61V77.17a16.39,16.39,0,0,0-24.24-.09C63.34,35.74,74.63,7.82,85.85,4.61Zm-20.23,22C61,40.48,58.11,58.16,57.32,77.26a16.39,16.39,0,0,0-23.73-.79C36.77,41.66,54,13.63,76.28,6.22,72.26,10.73,68.64,17.62,65.62,26.63ZM63,8.11a65.7,65.7,0,0,0-17.21,18C36.46,40.23,30.67,58.3,29.16,77.8a16.39,16.39,0,0,0-24-1.47A84,84,0,0,1,63,8.11ZM4.32,87.46a12.16,12.16,0,0,1,24.3.78,2.1,2.1,0,0,0,.73,1.6l46.42,101Zm28.74.18c0-.45,0-.9,0-1.34a12.16,12.16,0,0,1,24,.13c0,.56,0,1.11,0,1.67v0l0,.22c0,.08,0,.15,0,.22v0l24,103.7Zm28.45.76c0-.06,0-.11,0-.16a12.16,12.16,0,1,1,24.32,0V193.51ZM112,255.7H64V232.37H112Zm4.68-41.25v13.62H59.28V214.45h57.44ZM90.15,193.51V88.24a12.16,12.16,0,1,1,24.32,0,1,1,0,0,0,0,.16Zm28.7-104.93v0a.85.85,0,0,0,0-.23l0-.2v0c0-.56,0-1.11,0-1.67a12.16,12.16,0,0,1,24-.13c0,.44,0,.89,0,1.34L94.84,192.28ZM100.23,190.82l46.42-101a2.1,2.1,0,0,0,.73-1.6,12.16,12.16,0,0,1,24.3-.78Zm59.32-119a16.4,16.4,0,0,0-12.71,6c-1.51-19.5-7.3-37.57-16.67-51.68A65.7,65.7,0,0,0,113,8.11a84,84,0,0,1,57.92,68.22A16.37,16.37,0,0,0,159.55,71.77Z"/></svg>